<?xml version="1.0" encoding="utf-8"?>
<!-- Generator: Adobe Illustrator 23.0.0, SVG Export Plug-In . SVG Version: 6.00 Build 0)  -->
<svg version="1.1" id="Capa_1" xmlns="http://www.w3.org/2000/svg" xmlns:xlink="http://www.w3.org/1999/xlink" x="0px" y="0px"
	 viewBox="0 0 1920 497.74" style="enable-background:new 0 0 1920 497.74;" xml:space="preserve">
<style type="text/css">
	.st0{fill:#FFFFFF;stroke:#FFFFFF;stroke-width:14;stroke-miterlimit:10;}
	.st1{fill:none;stroke:#FFFFFF;stroke-width:3;stroke-miterlimit:10;}
</style>
<g>
	<path class="st0" d="M1438.21,462.54c-13.75,15.05-33.17,23.56-53.45,23.56c-20.08,0-39.5-8.51-53.25-23.56
		c-29.02-31.2-29.02-79.64,0-110.84c13.75-15.05,33.17-23.56,53.25-23.56c20.29,0,39.7,8.51,53.45,23.56
		C1467.23,382.89,1467.23,431.33,1438.21,462.54 M1422.5,366.53c-9.82-10.47-23.35-16.58-37.74-16.58
		c-14.19,0-27.71,6.11-37.53,16.58c-21.17,22.91-21.17,58.25,0,81.17c9.82,10.48,23.34,16.58,37.53,16.58
		c14.4,0,27.93-6.11,37.74-16.58C1443.45,424.79,1443.45,389.44,1422.5,366.53"/>
	<polygon class="st0" points="1598.14,330.75 1530.28,483.48 1525.7,483.48 1457.84,330.75 1481.63,330.75 1528.1,435.26 
		1574.58,330.75 	"/>
	<polygon class="st0" points="1710.72,461.88 1710.72,483.7 1622.57,483.7 1622.57,483.48 1611.66,483.48 1611.66,330.75 
		1707.88,330.75 1707.88,352.57 1633.48,352.57 1633.48,396.86 1688.9,396.86 1688.9,418.68 1633.48,418.68 1633.48,461.88 	"/>
	<path class="st0" d="M1809.55,433.73l30.98,49.75h-25.53l-29.24-46.91h-35.56v46.91h-21.82V330.97h62.63
		c24.43,0,40.14,13.96,46.91,31.86c5.02,13.52,5.02,28.36,0,41.89C1833.33,418.24,1822.86,428.72,1809.55,433.73 M1750.21,414.97
		h41.45c11.56,0.22,22.26-6.98,25.96-17.9c3.28-8.51,3.28-18.11,0-26.62c-3.7-10.04-12.65-17.67-26.61-17.67h-40.8V414.97z"/>
</g>
<g>
	<path class="st1" d="M1556.75,278.39c-0.71,1.15-1.35,2.35-2.11,3.48c-7.34,11.01-16.22,20.41-26.61,28.22
		c-10.4,7.8-21.88,13.92-34.41,18.36c-12.55,4.44-25.55,6.65-39,6.65c-11.63,0-23.1-1.61-34.41-4.82
		c-11.32-3.21-22.03-8.33-32.12-15.37c-11.01-7.35-20.5-16.21-28.45-26.61c-7.96-10.4-14.07-21.57-18.36-33.5
		c-4.29-11.93-6.58-24.39-6.88-37.4c-0.31-13,1.53-25.93,5.51-38.78c4.28-12.85,10.25-24.47,17.89-34.87
		c7.64-10.4,16.67-19.27,27.07-26.61c10.4-7.35,21.8-13,34.19-16.98c12.39-3.97,25.16-5.81,38.32-5.5
		c13.46,0.3,26.31,2.75,38.55,7.34c12.23,4.59,23.32,10.78,33.27,18.59c9.94,7.8,18.5,17.14,25.69,27.99
		c0.57,0.86,1.05,1.77,1.59,2.64h51.31c-3.54-8.61-7.77-16.84-12.75-24.66c-11.01-17.28-24.55-31.97-40.61-44.05
		c-16.06-12.08-33.96-21.03-53.69-26.84c-19.73-5.81-40.15-7.8-61.26-5.97c-21.42,2.14-41.3,7.96-59.65,17.44
		c-18.35,9.49-34.26,21.56-47.72,36.25c-13.47,14.68-24.02,31.59-31.67,50.71c-7.65,19.12-11.47,39.39-11.47,60.8
		c0,21.41,3.82,41.68,11.47,60.8c7.65,19.12,18.2,36.1,31.67,50.93c13.46,14.84,29.37,26.92,47.72,36.25
		c18.36,9.34,38.24,15.06,59.65,17.21c21.11,1.84,41.53-0.15,61.26-5.96c19.73-5.81,37.63-14.76,53.69-26.84
		c16.06-12.08,29.6-26.76,40.61-44.05c5.01-7.86,9.26-16.15,12.81-24.81H1556.75z"/>
	<polygon class="st1" points="1887.96,51.38 1887.96,372.59 1842.07,372.59 1842.07,235.84 1701.66,235.84 1701.66,372.59 
		1655.77,372.59 1655.77,51.38 1701.66,51.38 1701.66,190.41 1842.07,190.41 1842.07,51.38 	"/>
</g>
<g>
	<path class="st1" d="M555.39,245.4c-0.71,1.15-1.35,2.35-2.11,3.48c-7.34,11.01-16.22,20.41-26.61,28.22
		c-10.4,7.8-21.88,13.92-34.41,18.36c-12.55,4.44-25.55,6.65-39,6.65c-11.63,0-23.1-1.61-34.41-4.82
		c-11.32-3.21-22.03-8.33-32.12-15.37c-11.01-7.35-20.5-16.21-28.45-26.61c-7.96-10.4-14.07-21.57-18.36-33.5
		c-4.29-11.93-6.58-24.39-6.88-37.4c-0.31-13,1.53-25.93,5.51-38.78c4.28-12.85,10.25-24.47,17.89-34.87
		c7.64-10.4,16.67-19.27,27.07-26.61c10.4-7.35,21.8-13,34.19-16.98c12.39-3.97,25.16-5.81,38.32-5.5
		c13.46,0.3,26.31,2.75,38.55,7.34c12.23,4.59,23.32,10.78,33.27,18.59c9.94,7.8,18.5,17.14,25.69,27.99
		c0.57,0.86,1.05,1.77,1.59,2.64h51.31c-3.54-8.61-7.77-16.84-12.75-24.66c-11.01-17.28-24.55-31.97-40.61-44.05
		c-16.06-12.08-33.96-21.03-53.69-26.84c-19.73-5.81-40.15-7.8-61.26-5.97c-21.42,2.14-41.3,7.96-59.65,17.44
		c-18.35,9.49-34.26,21.56-47.72,36.25c-13.47,14.68-24.02,31.59-31.67,50.71c-7.65,19.12-11.47,39.39-11.47,60.8
		c0,21.41,3.82,41.68,11.47,60.8c7.65,19.12,18.2,36.1,31.67,50.93c13.46,14.84,29.37,26.92,47.72,36.25
		c18.36,9.34,38.24,15.06,59.65,17.21c21.11,1.84,41.53-0.15,61.26-5.96c19.73-5.81,37.63-14.76,53.69-26.84
		c16.06-12.08,29.6-26.76,40.61-44.05c5.01-7.86,9.26-16.15,12.81-24.81H555.39z"/>
	<path class="st1" d="M159.09,148.06c11.93,4.59,23.7,9.48,35.33,14.68c11.62,5.2,22.02,11.63,31.2,19.27
		c9.17,7.65,16.52,16.91,22.02,27.76c5.51,10.86,8.26,24.4,8.26,40.61c0.3,15.3-2.75,28.84-9.18,40.61
		c-6.43,11.78-14.84,21.72-25.24,29.83c-10.4,8.11-22.34,14.23-35.79,18.36c-13.47,4.13-27.07,6.19-40.84,6.19
		c-15.3,0-29.68-2.14-43.13-6.43c-13.47-4.28-25.17-10.55-35.11-18.81c-9.94-8.26-17.75-18.58-23.4-30.97
		c-5.66-12.39-8.49-26.69-8.49-42.9h45.89c0,9.79,1.68,18.12,5.05,25c3.36,6.88,7.95,12.39,13.77,16.52
		c5.81,4.13,12.62,7.11,20.42,8.95c7.8,1.83,16.13,2.75,25.01,2.75c8.87,0,17.74-1.3,26.61-3.9c8.87-2.6,16.67-6.5,23.4-11.7
		c5.2-4.28,9.1-9.33,11.7-15.14c2.59-5.81,3.74-11.93,3.44-18.36c0-8.26-1.91-15.44-5.73-21.57c-3.83-6.11-8.95-11.47-15.37-16.06
		c-6.42-4.59-13.69-8.64-21.8-12.16c-8.11-3.51-16.29-6.8-24.55-9.87c-11.32-4.59-22.48-9.25-33.49-13.99
		c-11.01-4.74-20.81-10.63-29.37-17.67c-8.57-7.03-15.45-15.6-20.65-25.7c-5.2-10.09-7.8-22.48-7.8-37.17
		c-0.31-11.62,1.98-22.72,6.88-33.27c4.89-10.56,11.77-19.65,20.65-27.3c9.48-7.34,19.96-13,31.43-16.98
		c11.47-3.97,23.17-5.81,35.1-5.51c12.23,0,24.32,1.99,36.25,5.96c11.93,3.98,22.56,9.64,31.89,16.98
		c9.33,7.34,16.82,16.37,22.49,27.07c5.66,10.71,8.33,22.79,8.03,36.25H198.1c0.3-5.2-0.69-10.24-2.98-15.14
		c-2.29-4.89-5.44-9.02-9.41-12.39c-12.24-8.87-25.69-13.15-40.38-12.85c-13.76-0.61-26.15,3.21-37.17,11.47
		c-7.96,6.73-11.63,15.3-11.01,25.7c0,7.04,1.75,13.16,5.28,18.35c3.51,5.21,8.18,9.79,14,13.76c5.81,3.98,12.46,7.5,19.96,10.56
		C143.87,141.95,151.44,145,159.09,148.06"/>
</g>
</svg>
