<?xml version="1.0" encoding="utf-8"?>
<!-- Generator: Adobe Illustrator 23.0.0, SVG Export Plug-In . SVG Version: 6.00 Build 0)  -->
<svg version="1.1" id="Capa_1" xmlns="http://www.w3.org/2000/svg" xmlns:xlink="http://www.w3.org/1999/xlink" x="0px" y="0px"
	 viewBox="0 0 2027.8 497.7" style="enable-background:new 0 0 2027.8 497.7;" xml:space="preserve">
<style type="text/css">
	.st0{fill:none;stroke:#FFFFFF;stroke-width:3;stroke-miterlimit:10;}
	.st1{fill:#FFFFFF;}
</style>
<g>
	<path class="st0" d="M1541,330.3c-0.7,1.1-1.3,2.4-2.1,3.5c-7.3,11-16.2,20.4-26.6,28.2c-10.4,7.8-21.9,13.9-34.4,18.4
		c-12.6,4.4-25.6,6.6-39,6.6c-11.6,0-23.1-1.6-34.4-4.8c-11.3-3.2-22-8.3-32.1-15.4c-11-7.4-20.5-16.2-28.4-26.6
		c-8-10.4-14.1-21.6-18.4-33.5s-6.6-24.4-6.9-37.4c-0.3-13,1.5-25.9,5.5-38.8c4.3-12.9,10.3-24.5,17.9-34.9s16.7-19.3,27.1-26.6
		c10.4-7.4,21.8-13,34.2-17c12.4-4,25.2-5.8,38.3-5.5c13.5,0.3,26.3,2.8,38.6,7.3c12.2,4.6,23.3,10.8,33.3,18.6
		c9.9,7.8,18.5,17.1,25.7,28c0.6,0.9,1.1,1.8,1.6,2.6h51.3c-3.5-8.6-7.8-16.8-12.8-24.7c-11-17.3-24.6-32-40.6-44.1
		c-16.1-12.1-34-21-53.7-26.8c-19.7-5.8-40.2-7.8-61.3-6c-21.4,2.1-41.3,8-59.7,17.4c-18.3,9.5-34.3,21.6-47.7,36.2
		c-13.5,14.7-24,31.6-31.7,50.7s-11.5,39.4-11.5,60.8s3.8,41.7,11.5,60.8s18.2,36.1,31.7,50.9c13.5,14.8,29.4,26.9,47.7,36.3
		c18.4,9.3,38.2,15.1,59.7,17.2c21.1,1.8,41.5-0.1,61.3-6s37.6-14.8,53.7-26.8c16.1-12.1,29.6-26.8,40.6-44
		c5-7.9,9.3-16.1,12.8-24.8L1541,330.3L1541,330.3z"/>
	<polygon class="st0" points="1872.2,103.3 1872.2,424.5 1826.3,424.5 1826.3,287.8 1685.9,287.8 1685.9,424.5 1640,424.5 
		1640,103.3 1685.9,103.3 1685.9,242.4 1826.3,242.4 1826.3,103.3 	"/>
</g>
<g>
	<path class="st0" d="M539.7,297.3c-0.7,1.1-1.3,2.4-2.1,3.5c-7.3,11-16.2,20.4-26.6,28.2c-10.4,7.8-21.9,13.9-34.4,18.4
		c-12.5,4.4-25.5,6.6-39,6.6c-11.6,0-23.1-1.6-34.4-4.8c-11.3-3.2-22-8.3-32.1-15.4c-11-7.4-20.5-16.2-28.5-26.6
		c-8-10.4-14.1-21.6-18.4-33.5c-4.3-11.9-6.6-24.4-6.9-37.4c-0.3-13,1.5-25.9,5.5-38.8c4.3-12.9,10.3-24.5,17.9-34.9
		c7.6-10.4,16.7-19.3,27.1-26.6c10.4-7.4,21.8-13,34.2-17c12.4-4,25.2-5.8,38.3-5.5c13.5,0.3,26.3,2.8,38.5,7.3
		c12.2,4.6,23.3,10.8,33.3,18.6c9.9,7.8,18.5,17.1,25.7,28c0.6,0.9,1,1.8,1.6,2.6h51.3c-3.5-8.6-7.8-16.8-12.8-24.7
		c-11-17.3-24.5-32-40.6-44.1s-34-21-53.7-26.8c-19.7-5.8-40.1-7.8-61.3-6c-21.4,2.1-41.3,8-59.6,17.4
		c-18.4,9.5-34.3,21.6-47.7,36.3c-13.5,14.7-24,31.6-31.7,50.7c-7.6,19.1-11.5,39.4-11.5,60.8s3.8,41.7,11.5,60.8
		c7.6,19.1,18.2,36.1,31.7,50.9c13.5,14.8,29.4,26.9,47.7,36.3c18.4,9.3,38.2,15.1,59.6,17.2c21.1,1.8,41.5-0.1,61.3-6
		c19.7-5.8,37.6-14.8,53.7-26.8s29.6-26.8,40.6-44c5-7.9,9.3-16.1,12.8-24.8L539.7,297.3L539.7,297.3z"/>
	<path class="st0" d="M143.4,200c11.9,4.6,23.7,9.5,35.3,14.7c11.6,5.2,22,11.6,31.2,19.3c9.2,7.6,16.5,16.9,22,27.8
		c5.5,10.9,8.3,24.4,8.3,40.6c0.3,15.3-2.8,28.8-9.2,40.6c-6.4,11.8-14.8,21.7-25.2,29.8c-10.4,8.1-22.3,14.2-35.8,18.4
		c-13.5,4.1-27.1,6.2-40.8,6.2c-15.3,0-29.7-2.1-43.1-6.4c-13.5-4.3-25.2-10.5-35.1-18.8s-17.8-18.6-23.4-31
		c-5.7-12.4-8.5-26.7-8.5-42.9h45.9c0,9.8,1.7,18.1,5.1,25c3.4,6.9,7.9,12.4,13.8,16.5c5.8,4.1,12.6,7.1,20.4,9
		c7.8,1.8,16.1,2.8,25,2.8c8.9,0,17.7-1.3,26.6-3.9s16.7-6.5,23.4-11.7c5.2-4.3,9.1-9.3,11.7-15.1c2.6-5.8,3.7-11.9,3.4-18.4
		c0-8.3-1.9-15.4-5.7-21.6c-3.8-6.1-8.9-11.5-15.4-16.1s-13.7-8.6-21.8-12.2c-8.1-3.5-16.3-6.8-24.5-9.9c-11.3-4.6-22.5-9.3-33.5-14
		S72.5,218,64,211c-8.6-7-15.4-15.6-20.7-25.7c-5.2-10.1-7.8-22.5-7.8-37.2c-0.3-11.6,2-22.7,6.9-33.3c4.9-10.6,11.8-19.6,20.7-27.3
		c9.5-7.3,20-13,31.4-17c11.5-4,23.2-5.8,35.1-5.5c12.2,0,24.3,2,36.3,6c11.9,4,22.6,9.6,31.9,17c9.3,7.3,16.8,16.4,22.5,27.1
		c5.7,10.7,8.3,22.8,8,36.3h-45.9c0.3-5.2-0.7-10.2-3-15.1c-2.3-4.9-5.4-9-9.4-12.4c-12.2-8.9-25.7-13.2-40.4-12.8
		c-13.8-0.6-26.1,3.2-37.2,11.5c-8,6.7-11.6,15.3-11,25.7c0,7,1.8,13.2,5.3,18.3c3.5,5.2,8.2,9.8,14,13.8c5.8,4,12.5,7.5,20,10.6
		C128.1,193.9,135.7,196.9,143.4,200"/>
</g>
<g>
	<path class="st1" d="M1910.6,148.9c0-9.4,2.1-17.3,6.2-23.9c4.1-6.5,9.9-11.5,17.3-15c7.4-3.4,15.9-5.1,25.6-5.1
		c9.7,0,18.2,1.7,25.6,5.1c7.4,3.4,13.1,8.4,17.3,15c4.1,6.5,6.2,14.5,6.2,23.9c0,9.4-2.1,17.4-6.2,24c-4.1,6.5-9.9,11.5-17.3,14.9
		c-7.4,3.4-15.9,5.1-25.6,5.1c-9.7,0-18.2-1.7-25.6-5.1c-7.4-3.4-13.1-8.4-17.3-14.9S1910.6,158.3,1910.6,148.9z M1921.8,148.9
		c0,7,1.5,12.9,4.7,17.6c3.2,4.7,7.7,8.2,13.4,10.5c5.7,2.3,12.3,3.5,19.8,3.5c7.5,0,14.2-1.2,19.8-3.5c5.7-2.3,10.1-5.8,13.3-10.5
		c3.2-4.7,4.8-10.6,4.8-17.6c0-7-1.5-12.9-4.7-17.5c-3.2-4.6-7.6-8.2-13.4-10.5c-5.7-2.4-12.4-3.6-19.9-3.6
		c-7.5,0-14.1,1.1-19.8,3.5c-5.7,2.4-10.1,5.9-13.3,10.6C1923.4,136,1921.8,141.9,1921.8,148.9z"/>
	<path class="st1" d="M1912.6,225.1l94.3-31.6v12.1l-81.9,27.4l81.9,27.7v12.1l-94.3-31.6V225.1z"/>
	<path class="st1" d="M1912.6,282.7h94.3v59.6h-11.1v-47.9h-29.5v40.1h-11.1v-40.1h-31.6v47.9h-11.1V282.7z"/>
	<path class="st1" d="M1912.6,358h94.3v37.3c0,0.9,0,2-0.1,3.3c-0.1,1.3-0.2,2.5-0.4,3.7c-0.8,5.1-2.5,9.4-5.2,12.9
		s-6.1,6.1-10.2,7.8c-4.1,1.7-8.7,2.6-13.7,2.6c-7.3,0-13.6-1.9-19-5.7c-5.3-3.8-8.7-9.4-10-16.7l-0.7-4.5v-29h-34.8V358z
		 M1912.6,414.1l38.4-18.6l3.5,11.5l-41.9,20.4V414.1z M1958.5,369.7v25.2c0,0.8,0,1.8,0.1,2.8c0.1,1.1,0.2,2.1,0.5,3
		c0.7,3,2,5.5,3.8,7.4c1.9,1.9,4,3.3,6.5,4.2s5.1,1.3,7.7,1.3c2.6,0,5.2-0.4,7.7-1.3c2.5-0.9,4.7-2.3,6.6-4.2
		c1.9-1.9,3.1-4.4,3.8-7.4c0.3-1,0.4-2,0.5-3c0.1-1.1,0.1-2,0.1-2.8v-25.2H1958.5z"/>
</g>
</svg>
